<svg width="1200" height="420" viewBox="0 0 1200 420" fill="none" xmlns="http://www.w3.org/2000/svg" role="img" aria-labelledby="title desc">
<title id="title">Atakan Elik — ReARC Labs</title>
<desc id="desc">A dark GitHub profile banner showing memory, web, trust, and execution layers for autonomous agents.</desc>
<defs>
  <linearGradient id="bg" x1="0" y1="0" x2="1200" y2="420" gradientUnits="userSpaceOnUse"><stop stop-color="#05070D"/><stop offset="0.55" stop-color="#0B1220"/><stop offset="1" stop-color="#071A12"/></linearGradient>
  <radialGradient id="glow" cx="0" cy="0" r="1" gradientUnits="userSpaceOnUse" gradientTransform="translate(910 120) rotate(139) scale(430 260)"><stop stop-color="#22C55E" stop-opacity="0.34"/><stop offset="1" stop-color="#22C55E" stop-opacity="0"/></radialGradient>
  <linearGradient id="line" x1="0" y1="0" x2="1" y2="0"><stop stop-color="#22C55E" stop-opacity="0"/><stop offset="0.5" stop-color="#22C55E" stop-opacity="0.95"/><stop offset="1" stop-color="#38BDF8" stop-opacity="0"/></linearGradient>
  <filter id="soft" x="-30%" y="-30%" width="160%" height="160%"><feGaussianBlur stdDeviation="18"/></filter>
  <pattern id="grid" width="36" height="36" patternUnits="userSpaceOnUse"><path d="M 36 0 L 0 0 0 36" fill="none" stroke="#FFFFFF" stroke-opacity="0.055" stroke-width="1"/></pattern>
</defs>
<rect width="1200" height="420" rx="28" fill="url(#bg)"/><rect width="1200" height="420" rx="28" fill="url(#grid)"/><rect width="1200" height="420" rx="28" fill="url(#glow)"/>
<circle cx="977" cy="116" r="112" fill="#22C55E" opacity="0.10" filter="url(#soft)"/><circle cx="245" cy="341" r="130" fill="#38BDF8" opacity="0.08" filter="url(#soft)"/>
<g transform="translate(72 72)"><text x="0" y="0" fill="#94A3B8" font-family="ui-monospace, SFMono-Regular, Menlo, Monaco, Consolas, monospace" font-size="17" letter-spacing="3">REARC LABS</text><text x="0" y="62" fill="#F8FAFC" font-family="Inter, ui-sans-serif, system-ui, -apple-system, Segoe UI, sans-serif" font-size="50" font-weight="750">Atakan Elik</text><text x="0" y="105" fill="#CBD5E1" font-family="Inter, ui-sans-serif, system-ui, -apple-system, Segoe UI, sans-serif" font-size="24">building the operating layer for autonomous agents</text><rect x="0" y="144" width="552" height="1" fill="url(#line)"/><text x="0" y="192" fill="#8CF5B5" font-family="ui-monospace, SFMono-Regular, Menlo, Monaco, Consolas, monospace" font-size="17">memory · web access · reputation · execution receipts</text></g>
<g transform="translate(703 86)"><rect x="0" y="0" width="410" height="238" rx="22" fill="#020617" fill-opacity="0.72" stroke="#1F2937"/><text x="28" y="42" fill="#E5E7EB" font-family="ui-monospace, SFMono-Regular, Menlo, Monaco, Consolas, monospace" font-size="15">agent stack</text><g transform="translate(32 72)"><circle cx="18" cy="18" r="18" fill="#22C55E" fill-opacity="0.14" stroke="#22C55E"/><text x="52" y="23" fill="#F8FAFC" font-family="Inter, ui-sans-serif, system-ui" font-size="17" font-weight="650">Bilinc</text><text x="168" y="23" fill="#94A3B8" font-family="ui-monospace, SFMono-Regular" font-size="14">verifiable memory</text></g><g transform="translate(32 122)"><circle cx="18" cy="18" r="18" fill="#38BDF8" fill-opacity="0.13" stroke="#38BDF8"/><text x="52" y="23" fill="#F8FAFC" font-family="Inter, ui-sans-serif, system-ui" font-size="17" font-weight="650">Clawifi</text><text x="168" y="23" fill="#94A3B8" font-family="ui-monospace, SFMono-Regular" font-size="14">internet gateway</text></g><g transform="translate(32 172)"><circle cx="18" cy="18" r="18" fill="#F59E0B" fill-opacity="0.13" stroke="#F59E0B"/><text x="52" y="23" fill="#F8FAFC" font-family="Inter, ui-sans-serif, system-ui" font-size="17" font-weight="650">ARES</text><text x="168" y="23" fill="#94A3B8" font-family="ui-monospace, SFMono-Regular" font-size="14">agent reputation</text></g></g>
<g opacity="0.9"><path d="M641 210 C690 150 716 151 752 208" stroke="#22C55E" stroke-opacity="0.38" stroke-width="2" stroke-dasharray="6 8"/><path d="M641 210 C697 241 720 240 752 208" stroke="#38BDF8" stroke-opacity="0.26" stroke-width="2" stroke-dasharray="6 8"/></g>
<rect x="1" y="1" width="1198" height="418" rx="27" stroke="#FFFFFF" stroke-opacity="0.08"/>
</svg>
